<svg width="154" height="144" viewBox="0 0 154 144" fill="none" xmlns="http://www.w3.org/2000/svg">
<path d="M41.5641 123.988L29.4941 30.827H27.3374H25.0952H24.9643H23.5075H22.5003L1.63818 123.988H3.91446L22.7222 41.2634L16.5023 123.988H19.1029L26.4439 40.9262L38.6277 123.988H41.5641Z" fill="#E0E0E0"/>
<path d="M63.9171 107.865H12.4505L0.5 0.180908H51.9667L63.9171 107.865Z" fill="#88B5F1"/>
<path opacity="0.8" d="M63.9171 107.865H12.4505L0.5 0.180908H51.9667L63.9171 107.865Z" fill="white"/>
<path d="M50.5098 9.67994H4.46641L3.77783 3.4787H49.8213L50.5098 9.67994Z" fill="#88B5F1"/>
<path d="M34.1889 35.3022H7.31176L7.07275 33.1532H33.9499L34.1889 35.3022Z" fill="#88B5F1"/>
<path d="M34.7238 40.1375H7.84667L7.60767 37.9885H34.4848L34.7238 40.1375Z" fill="#88B5F1"/>
<path d="M20.7645 29.7411H6.69144L5.16064 15.9441H19.2337L20.7645 29.7411Z" fill="#88B5F1"/>
<path d="M37.7229 67.1772H10.8457L10.6067 65.0282H37.4895L37.7229 67.1772Z" fill="#88B5F1"/>
<path d="M38.2635 72.0124H11.3863L11.1473 69.8634H38.0245L38.2635 72.0124Z" fill="#88B5F1"/>
<path d="M24.3042 61.6217H10.2311L8.70032 47.8247H22.7734L24.3042 61.6217Z" fill="#88B5F1"/>
<path opacity="0.6" d="M50.5098 9.67994H4.46641L3.77783 3.4787H49.8213L50.5098 9.67994Z" fill="white"/>
<path opacity="0.6" d="M34.1889 35.3022H7.31176L7.07275 33.1532H33.9499L34.1889 35.3022Z" fill="white"/>
<path opacity="0.6" d="M34.7238 40.1375H7.84667L7.60767 37.9885H34.4848L34.7238 40.1375Z" fill="white"/>
<path opacity="0.6" d="M20.7645 29.7411H6.69144L5.16064 15.9441H19.2337L20.7645 29.7411Z" fill="white"/>
<path opacity="0.6" d="M37.7229 67.1772H10.8457L10.6067 65.0282H37.4895L37.7229 67.1772Z" fill="white"/>
<path opacity="0.6" d="M38.2635 72.0124H11.3863L11.1473 69.8634H38.0245L38.2635 72.0124Z" fill="white"/>
<path opacity="0.6" d="M24.3042 61.6217H10.2311L8.70032 47.8247H22.7734L24.3042 61.6217Z" fill="white"/>
<path d="M54.8462 121.479L57.6289 127.904C58.1537 129.118 59.0204 130.152 60.1224 130.878C61.2245 131.604 62.5138 131.99 63.8318 131.99H75.4806C77.0259 131.989 78.5077 131.373 79.6007 130.275H101.356C102.197 130.275 103.025 130.075 103.773 129.69C104.521 129.306 105.167 128.748 105.658 128.064L108.532 124.063L54.8462 121.479Z" fill="#2E353A"/>
<path d="M72.5727 96.0114C72.5727 99.0921 84.7963 120.971 86.0198 121.839C87.2433 122.708 103.2 121.737 103.2 121.737L102.011 126.275H58.1923L39.9821 90.7761L52.0236 73.3269L73.9612 73.9385C73.9612 73.9385 72.5727 92.9365 72.5727 96.0114Z" fill="#88B5F1"/>
<path opacity="0.2" d="M72.5727 96.0114C72.5727 99.0921 84.7963 120.971 86.0198 121.839C87.2433 122.708 103.2 121.737 103.2 121.737L102.011 126.275H58.1923L39.9821 90.7761L52.0236 73.3269L73.9612 73.9385C73.9612 73.9385 72.5727 92.9365 72.5727 96.0114Z" fill="black"/>
<path d="M36.9774 143.181C46.8492 143.181 54.8519 133.485 54.8519 121.525C54.8519 109.565 46.8492 99.8694 36.9774 99.8694C27.1056 99.8694 19.1029 109.565 19.1029 121.525C19.1029 133.485 27.1056 143.181 36.9774 143.181Z" fill="#2E353A"/>
<path d="M33.9841 135.185C40.2101 135.185 45.2574 129.069 45.2574 121.525C45.2574 113.981 40.2101 107.865 33.9841 107.865C27.758 107.865 22.7108 113.981 22.7108 121.525C22.7108 129.069 27.758 135.185 33.9841 135.185Z" fill="white"/>
<path d="M31.3948 127.029C33.9877 127.029 36.0896 124.483 36.0896 121.342C36.0896 118.201 33.9877 115.655 31.3948 115.655C28.8019 115.655 26.7 118.201 26.7 121.342C26.7 124.483 28.8019 127.029 31.3948 127.029Z" fill="#88B5F1"/>
<path opacity="0.4" d="M31.3948 127.029C33.9877 127.029 36.0896 124.483 36.0896 121.342C36.0896 118.201 33.9877 115.655 31.3948 115.655C28.8019 115.655 26.7 118.201 26.7 121.342C26.7 124.483 28.8019 127.029 31.3948 127.029Z" fill="black"/>
<path d="M136.547 88.8101C136.547 88.8101 120.414 101.235 114.263 126.846H88.4269L112.897 86.8383L125.803 81.4486L136.547 88.8101Z" fill="#88B5F1"/>
<path opacity="0.4" d="M138.215 87.547C138.215 87.547 123.129 99.1321 115.924 120.931C115.368 122.644 114.289 124.138 112.839 125.2C111.389 126.262 109.643 126.838 107.849 126.846H88.4269L112.897 86.8383L125.803 81.4486L138.215 87.547Z" fill="black"/>
<path d="M136.661 88.5529H126.697C124.806 88.5295 122.951 89.0749 121.37 90.1189C115.458 94.074 101.453 105.105 99.9961 122.583C99.9051 123.736 99.3873 124.814 98.5447 125.603C97.702 126.392 96.5957 126.836 95.4436 126.846H52.1317C44.8536 126.847 37.7057 124.908 31.4175 121.228L19.0346 113.981C17.7005 113.198 16.644 112.015 16.0133 110.599C15.3825 109.182 15.2092 107.603 15.5177 106.082C16.9916 98.9435 21.1458 86.6953 33.0337 81.9058C33.2215 81.8201 32.9369 81.7458 33.506 81.6772V74.2643H64.5545C64.5545 74.2643 58.3288 89.1758 58.3288 95.3256C58.3288 101.127 64.452 123.417 72.3735 125.703H83.1858C84.6228 125.668 86.0253 125.253 87.2521 124.501C88.4789 123.748 89.4866 122.685 90.174 121.417C95.4436 111.969 107.149 87.4726 103.502 64.3195C103.075 61.6161 105.146 58.8326 107.878 58.8326H121.82C121.82 58.8326 134.339 73.4184 138.403 85.7466C138.818 86.9468 137.925 88.5529 136.661 88.5529Z" fill="#88B5F1"/>
<path d="M114.314 54.1917H110.33C109.285 54.1914 108.271 53.8325 107.457 53.1744L99.2677 46.5159C98.9459 46.2529 98.5445 46.1078 98.1296 46.1044H82.3891C82.0873 46.1044 81.7978 45.984 81.5843 45.7696C81.3709 45.5552 81.251 45.2645 81.251 44.9613C81.251 44.6582 81.3709 44.3674 81.5843 44.153C81.7978 43.9387 82.0873 43.8182 82.3891 43.8182H98.1182C99.0555 43.8187 99.9639 44.1437 100.69 44.7384L108.885 51.4026C109.292 51.7335 109.801 51.9132 110.325 51.9113H114.308C114.86 51.9092 115.393 51.7086 115.811 51.3458C116.229 50.9831 116.503 50.4821 116.585 49.9337L116.943 47.3618C117.087 46.3826 117.575 45.4875 118.32 44.8385C119.064 44.1896 120.015 43.8297 121 43.824H123.988C124.29 43.824 124.579 43.9444 124.793 44.1588C125.006 44.3731 125.126 44.6639 125.126 44.967C125.126 45.2702 125.006 45.561 124.793 45.7753C124.579 45.9897 124.29 46.1101 123.988 46.1101H120.989C120.551 46.1134 120.129 46.2735 119.798 46.5617C119.468 46.8498 119.25 47.247 119.185 47.6819L118.827 50.2538C118.666 51.3432 118.123 52.339 117.296 53.0612C116.468 53.7835 115.41 54.1845 114.314 54.1917Z" fill="#2E353A"/>
<path d="M107.286 49.345C107.286 49.345 107.337 52.0427 104.816 51.8713L103.997 54.7976C103.88 55.2097 103.85 55.6419 103.91 56.0662C103.97 56.4905 104.118 56.8975 104.344 57.2609L106.125 60.1186H122.628L123.925 57.661C124.133 57.2699 124.212 56.8225 124.149 56.3837C124.087 55.9449 123.887 55.5375 123.578 55.2205L118.662 50.1738C118.404 49.9078 118.096 49.6964 117.756 49.5521C117.416 49.4078 117.05 49.3335 116.681 49.3336L107.286 49.345Z" fill="#88B5F1"/>
<path opacity="0.4" d="M107.286 49.345C107.286 49.345 107.337 52.0427 104.816 51.8713L103.997 54.7976C103.88 55.2097 103.85 55.6419 103.91 56.0662C103.97 56.4905 104.118 56.8975 104.344 57.2609L106.125 60.1186H122.628L123.925 57.661C124.133 57.2699 124.212 56.8225 124.149 56.3837C124.087 55.9449 123.887 55.5375 123.578 55.2205L118.662 50.1738C118.404 49.9078 118.096 49.6964 117.756 49.5521C117.416 49.4078 117.05 49.3335 116.681 49.3336L107.286 49.345Z" fill="black"/>
<path d="M135.626 143.181C145.497 143.181 153.5 133.485 153.5 121.525C153.5 109.565 145.497 99.8694 135.626 99.8694C125.754 99.8694 117.751 109.565 117.751 121.525C117.751 133.485 125.754 143.181 135.626 143.181Z" fill="#2E353A"/>
<path d="M132.638 135.185C138.864 135.185 143.911 129.069 143.911 121.525C143.911 113.981 138.864 107.865 132.638 107.865C126.412 107.865 121.365 113.981 121.365 121.525C121.365 129.069 126.412 135.185 132.638 135.185Z" fill="white"/>
<path d="M153.215 107.557C151.332 104.339 146.296 97.3832 137.242 95.3485C134.922 94.802 132.516 94.732 130.168 95.1427L130.128 95.0455L130.168 94.9598H130.094L128.541 91.4105H126.771C125.334 91.4101 123.935 91.8796 122.787 92.7479L119.68 95.0913L121.143 100.184C120.72 100.639 120.324 101.12 119.959 101.624C117.338 104.896 115.55 108.761 114.752 112.883C114.726 113.055 114.737 113.231 114.785 113.398C114.832 113.566 114.916 113.721 115.029 113.853C115.142 113.985 115.282 114.09 115.439 114.163C115.597 114.235 115.768 114.273 115.941 114.272H116.875C117.12 114.276 117.36 114.205 117.563 114.068C117.767 113.931 117.923 113.735 118.013 113.506C118.847 111.294 120.167 109.299 121.877 107.671L127.061 121.228L131.232 119.468L129.77 102.573C129.77 102.573 139.364 99.8636 145.647 107.659C146.012 108.116 146.475 108.485 147.001 108.739C147.526 108.994 148.102 109.126 148.686 109.128H152.333C152.515 109.125 152.692 109.074 152.848 108.981C153.004 108.888 153.133 108.755 153.223 108.596C153.312 108.437 153.358 108.258 153.357 108.075C153.355 107.893 153.307 107.714 153.215 107.557Z" fill="#88B5F1"/>
<path opacity="0.2" d="M153.215 107.557C151.332 104.339 146.296 97.3832 137.242 95.3485C134.922 94.802 132.516 94.732 130.168 95.1427L130.128 95.0455L130.168 94.9598H130.094L128.541 91.4105H126.771C125.334 91.4101 123.935 91.8796 122.787 92.7479L119.68 95.0913L121.143 100.184C120.72 100.639 120.324 101.12 119.959 101.624C117.338 104.896 115.55 108.761 114.752 112.883C114.726 113.055 114.737 113.231 114.785 113.398C114.832 113.566 114.916 113.721 115.029 113.853C115.142 113.985 115.282 114.09 115.439 114.163C115.597 114.235 115.768 114.273 115.941 114.272H116.875C117.12 114.276 117.36 114.205 117.563 114.068C117.767 113.931 117.923 113.735 118.013 113.506C118.847 111.294 120.167 109.299 121.877 107.671L127.061 121.228L131.232 119.468L129.77 102.573C129.77 102.573 139.364 99.8636 145.647 107.659C146.012 108.116 146.475 108.485 147.001 108.739C147.526 108.994 148.102 109.126 148.686 109.128H152.333C152.515 109.125 152.692 109.074 152.848 108.981C153.004 108.888 153.133 108.755 153.223 108.596C153.312 108.437 153.358 108.258 153.357 108.075C153.355 107.893 153.307 107.714 153.215 107.557Z" fill="black"/>
<path d="M130.049 127.029C132.642 127.029 134.744 124.483 134.744 121.342C134.744 118.201 132.642 115.655 130.049 115.655C127.456 115.655 125.354 118.201 125.354 121.342C125.354 124.483 127.456 127.029 130.049 127.029Z" fill="#88B5F1"/>
<path opacity="0.4" d="M130.049 127.029C132.642 127.029 134.744 124.483 134.744 121.342C134.744 118.201 132.642 115.655 130.049 115.655C127.456 115.655 125.354 118.201 125.354 121.342C125.354 124.483 127.456 127.029 130.049 127.029Z" fill="black"/>
<path d="M113.142 60.753C113.142 60.753 116.095 79.431 125.849 79.5567C134.994 79.6825 135.847 62.1475 127.124 59.4556C120.079 57.278 113.142 60.753 113.142 60.753Z" fill="#88B5F1"/>
<path opacity="0.2" d="M113.142 60.753C113.142 60.753 116.095 79.431 125.849 79.5567C134.994 79.6825 135.847 62.1475 127.124 59.4556C120.079 57.278 113.142 60.753 113.142 60.753Z" fill="black"/>
<path d="M132.598 69.3433C132.814 74.0814 129.969 77.9164 126.242 77.9164C122.514 77.9164 119.322 74.0699 119.105 69.3433C118.889 64.6166 121.735 60.7701 125.456 60.7701C129.178 60.7701 132.382 64.5995 132.598 69.3433Z" fill="white"/>
<path d="M123.317 57.0952H114.849L115.52 55.9978H123.317V57.0952Z" fill="#88B5F1"/>
<path d="M76.7553 73.4755V75.6245C76.7553 77.5735 75.1676 78.8366 73.2214 78.8366H34.7409C32.789 78.8366 31.2297 77.5735 31.2297 75.6245V73.4755C31.2297 71.5265 32.789 70.2634 34.7409 70.2634H73.2214C75.1676 70.2634 76.7553 71.5265 76.7553 73.4755Z" fill="#2E353A"/>
<path opacity="0.2" d="M64.2358 73.4756V75.6246C64.2571 76.0589 64.1863 76.4929 64.028 76.8977C63.8697 77.3025 63.6276 77.6689 63.3177 77.9726C63.0078 78.2763 62.6371 78.5104 62.2303 78.6594C61.8235 78.8083 61.3898 78.8688 60.9579 78.8366H34.7409C32.789 78.8366 31.2297 77.5735 31.2297 75.6246V73.4756C31.2297 71.5266 32.789 70.2635 34.7409 70.2635H60.9579C61.3898 70.2314 61.8235 70.2918 62.2303 70.4408C62.6371 70.5897 63.0078 70.8238 63.3177 71.1275C63.6276 71.4312 63.8697 71.7976 64.028 72.2024C64.1863 72.6072 64.2571 73.0412 64.2358 73.4756Z" fill="white"/>
<path opacity="0.2" d="M59.393 113.061V126.846H52.1317C44.8536 126.847 37.7057 124.908 31.4175 121.228L19.0346 113.981C17.7005 113.198 16.644 112.015 16.0133 110.599C15.3825 109.182 15.2092 107.603 15.5177 106.082C16.9916 98.9435 21.2084 86.6953 33.119 81.9058L33.6881 81.9343H38.4967C41.272 81.934 43.9898 82.7285 46.3312 84.2247C48.6727 85.721 50.5408 87.8568 51.7162 90.3818L56.8379 101.413C58.527 105.061 59.3992 109.037 59.393 113.061Z" fill="black"/>
<path d="M91.5293 36.0921L90.6252 36.7865L96.7894 44.881L97.6934 44.1865L91.5293 36.0921Z" fill="#2E353A"/>
<path d="M87.8237 35.1136H90.7259C91.0275 35.1136 91.3225 35.2024 91.5743 35.369C91.8262 35.5356 92.0238 35.7727 92.1429 36.051L92.5299 36.9597C92.6295 37.1951 92.6695 37.4515 92.6464 37.7062C92.6233 37.9609 92.5377 38.2058 92.3974 38.4192C92.2571 38.6326 92.0663 38.8077 91.8422 38.929C91.6181 39.0504 91.3675 39.1141 91.1129 39.1144H87.9545C87.5838 39.1154 87.2253 38.9817 86.945 38.738C86.6647 38.4943 86.4816 38.1571 86.4294 37.7885L86.2986 36.8797C86.2676 36.6603 86.2839 36.4368 86.3464 36.2242C86.4088 36.0117 86.5159 35.8151 86.6605 35.6477C86.805 35.4803 86.9837 35.346 87.1843 35.2538C87.385 35.1617 87.603 35.1139 87.8237 35.1136Z" fill="#88B5F1"/>
<path d="M120.486 37.3739L118.969 44.611L120.082 44.8465L121.6 37.6094L120.486 37.3739Z" fill="#2E353A"/>
<path d="M124.455 35.1136H121.331C121.024 35.1134 120.728 35.2243 120.497 35.426C120.266 35.6276 120.115 35.9064 120.073 36.2109L119.862 37.6569C119.837 37.8398 119.851 38.026 119.904 38.2028C119.957 38.3796 120.047 38.5429 120.169 38.6813C120.291 38.8197 120.441 38.9301 120.609 39.0049C120.777 39.0796 120.959 39.117 121.143 39.1144H124.261C124.567 39.1146 124.863 39.0037 125.095 38.802C125.326 38.6003 125.476 38.3215 125.519 38.017L125.729 36.571C125.755 36.3887 125.741 36.2029 125.688 36.0265C125.636 35.8501 125.546 35.6872 125.425 35.5489C125.304 35.4105 125.154 35.3 124.987 35.2249C124.82 35.1498 124.638 35.1118 124.455 35.1136Z" fill="#88B5F1"/>
<path d="M97.68 72.3382L92.7462 61.8961C92.4421 61.2519 91.899 60.753 91.2331 60.5062C90.5672 60.2594 89.8316 60.2844 89.1838 60.5758L76.3057 66.2912C75.779 66.5282 75.3421 66.929 75.0595 67.4343L61.7717 90.3989C61.5686 90.7514 61.4463 91.145 61.4138 91.551C61.3813 91.957 61.4394 92.3651 61.5839 92.7457C61.7284 93.1263 61.9556 93.4697 62.249 93.7509C62.5423 94.032 62.8945 94.244 63.2797 94.3711L82.059 100.538C82.6771 100.743 83.3476 100.718 83.949 100.468C84.5504 100.219 85.0428 99.7608 85.3369 99.1778L97.6459 74.7329C97.8348 74.3634 97.9361 73.9549 97.942 73.5396C97.948 73.1242 97.8583 72.713 97.68 72.3382ZM89.7472 64.2908C89.4531 64.1941 89.1941 64.012 89.0031 63.7675C88.812 63.523 88.6974 63.2271 88.6738 62.9172C88.6502 62.6073 88.7185 62.2973 88.8703 62.0265C89.022 61.7556 89.2503 61.536 89.5263 61.3954C89.8023 61.2548 90.1136 61.1996 90.4208 61.2366C90.728 61.2737 91.0175 61.4014 91.2524 61.6036C91.4874 61.8059 91.6574 62.0735 91.741 62.3728C91.8245 62.6721 91.8179 62.9895 91.7218 63.2849C91.5917 63.6805 91.311 64.0083 90.941 64.1968C90.571 64.3852 90.1419 64.4191 89.7472 64.2908Z" fill="#88B5F1"/>
<path opacity="0.6" d="M97.68 72.3382L92.7462 61.8961C92.4421 61.2519 91.899 60.753 91.2331 60.5062C90.5672 60.2594 89.8316 60.2844 89.1838 60.5758L76.3057 66.2912C75.779 66.5282 75.3421 66.929 75.0595 67.4343L61.7717 90.3989C61.5686 90.7514 61.4463 91.145 61.4138 91.551C61.3813 91.957 61.4394 92.3651 61.5839 92.7457C61.7284 93.1263 61.9556 93.4697 62.249 93.7509C62.5423 94.032 62.8945 94.244 63.2797 94.3711L82.059 100.538C82.6771 100.743 83.3476 100.718 83.949 100.468C84.5504 100.219 85.0428 99.7608 85.3369 99.1778L97.6459 74.7329C97.8348 74.3634 97.9361 73.9549 97.942 73.5396C97.948 73.1242 97.8583 72.713 97.68 72.3382ZM89.7472 64.2908C89.4531 64.1941 89.1941 64.012 89.0031 63.7675C88.812 63.523 88.6974 63.2271 88.6738 62.9172C88.6502 62.6073 88.7185 62.2973 88.8703 62.0265C89.022 61.7556 89.2503 61.536 89.5263 61.3954C89.8023 61.2548 90.1136 61.1996 90.4208 61.2366C90.728 61.2737 91.0175 61.4014 91.2524 61.6036C91.4874 61.8059 91.6574 62.0735 91.741 62.3728C91.8245 62.6721 91.8179 62.9895 91.7218 63.2849C91.5917 63.6805 91.311 64.0083 90.941 64.1968C90.571 64.3852 90.1419 64.4191 89.7472 64.2908Z" fill="white"/>
<path d="M87.9033 77.9221C87.6481 77.2053 87.2199 76.5631 86.6571 76.0532C85.9642 75.4243 85.1509 74.9439 84.267 74.6414L80.9778 80.8884C81.0082 80.8971 81.037 80.9106 81.0631 80.9284C81.0865 80.9473 81.1137 80.961 81.1428 80.9684C81.9095 81.4128 82.6487 81.9033 83.3565 82.4373C83.9238 82.8554 84.4181 83.3653 84.819 83.9462C85.1597 84.4405 85.3567 85.0204 85.388 85.6208C85.3743 86.3277 85.1783 87.0189 84.819 87.6269C84.4607 88.3352 83.9517 88.9557 83.328 89.4444C82.7283 89.9009 82.0432 90.2314 81.3135 90.416C80.5337 90.6054 79.7288 90.6691 78.9291 90.6046C78.0363 90.5361 77.1542 90.3655 76.3 90.096L75.105 92.3821L74.1831 92.0792L75.3952 89.7931C73.175 89.0244 71.3387 87.4199 70.2736 85.3179L71.8442 84.2719C72.1688 85.1426 72.691 85.9254 73.3693 86.5581C74.1899 87.3441 75.1568 87.9598 76.2146 88.3699L79.5039 82.1229L79.3787 82.0258C78.6547 81.5861 77.9538 81.1092 77.2788 80.5969C76.7567 80.2121 76.3059 79.7382 75.9472 79.1966C75.6482 78.7421 75.488 78.2097 75.4862 77.6649C75.519 77.0251 75.7023 76.4022 76.0212 75.8474C76.3786 75.1516 76.8721 74.5353 77.4723 74.0356C78.0434 73.5617 78.6977 73.1992 79.4014 72.9668C80.1366 72.7289 80.9054 72.613 81.6777 72.6239C82.5353 72.6328 83.3883 72.7519 84.2158 72.9783L85.4563 70.6121L86.3782 70.915L85.1433 73.2526C86.1171 73.5856 87.019 74.1015 87.8009 74.7729C88.4752 75.3724 89.0261 76.0985 89.4227 76.9105L87.9033 77.9221ZM82.8728 87.1868C83.1017 86.7974 83.2217 86.3531 83.2199 85.9008C83.1961 85.4908 83.0602 85.0953 82.8272 84.7577C82.5413 84.3347 82.1897 83.9604 81.7858 83.649C81.2592 83.2287 80.7102 82.8376 80.1412 82.4773L76.9146 88.6042C78.0797 89.0446 79.3393 89.1708 80.568 88.97C81.0631 88.8714 81.5287 88.6592 81.9286 88.3498C82.3284 88.0405 82.6515 87.6424 82.8728 87.1868ZM77.9275 76.1789C77.7134 76.5486 77.5886 76.9636 77.5633 77.3906C77.5644 77.7571 77.669 78.1158 77.8649 78.4251C78.1148 78.808 78.4309 79.1428 78.7982 79.4138C79.2958 79.798 79.8124 80.1567 80.3461 80.4883L83.5386 74.43C82.3988 74.0308 81.1634 73.9989 80.0047 74.3385C79.1017 74.6597 78.3574 75.3192 77.9275 76.1789Z" fill="#2E353A"/>
<path d="M91.3406 61.8332C91.3406 61.8332 97.3841 62.119 96.7467 56.5464C95.9273 49.4307 104.213 49.1907 103.217 46.4758" stroke="#88B5F1" stroke-linecap="round" stroke-linejoin="round"/>
</svg>
