<svg width="176" height="142" viewBox="0 0 176 142" fill="none" xmlns="http://www.w3.org/2000/svg">
<path d="M167.835 108.116H140.729V111.231H167.835V108.116Z" fill="#263238" stroke="#263238" stroke-width="0.88254" stroke-miterlimit="10"/>
<path d="M138.193 106.664H134.608V110.502H138.193V106.664Z" fill="#88B5F1" stroke="#263238" stroke-width="0.88254" stroke-miterlimit="10"/>
<path d="M154.556 106.664H150.971V110.502H154.556V106.664Z" fill="#88B5F1" stroke="#263238" stroke-width="0.88254" stroke-miterlimit="10"/>
<path d="M170.52 112.163H132.111V129.306H170.52V112.163Z" fill="white" stroke="#263238" stroke-width="0.88254" stroke-miterlimit="10"/>
<path d="M170.527 112.163H156.427V129.306H170.527V112.163Z" fill="white" stroke="#263238" stroke-width="0.88254" stroke-miterlimit="10"/>
<path d="M171.385 109.905H131.25V113.021H171.385V109.905Z" fill="#263238" stroke="#263238" stroke-width="0.88254" stroke-miterlimit="10"/>
<path d="M171.385 129.306H131.25V130.863H171.385V129.306Z" fill="#263238" stroke="#263238" stroke-width="0.88254" stroke-miterlimit="10"/>
<path d="M137.723 116.001H133.982V116.897H137.723V116.001Z" fill="#263238" stroke="#263238" stroke-width="0.88254" stroke-miterlimit="10"/>
<path d="M154.712 116.001H150.971V116.897H154.712V116.001Z" fill="#263238" stroke="#263238" stroke-width="0.88254" stroke-miterlimit="10"/>
<path d="M153.386 117.983V114.912H152.294V117.983H153.386Z" fill="#263238" stroke="#263238" stroke-width="0.88254" stroke-miterlimit="10"/>
<path d="M120.457 113.82H67.372C66.6047 113.82 65.9827 114.331 65.9827 114.961V129.37C65.9827 130 66.6047 130.51 67.372 130.51H120.457C121.224 130.51 121.846 130 121.846 129.37V114.961C121.846 114.331 121.224 113.82 120.457 113.82Z" fill="#878787" stroke="#263238" stroke-width="0.88254" stroke-miterlimit="10"/>
<path d="M113.471 113.823L93.1394 130.51H65.9279C65.7451 130.511 65.5641 130.481 65.395 130.424C65.226 130.367 65.0724 130.283 64.943 130.177C64.8136 130.071 64.7109 129.945 64.6408 129.807C64.5707 129.668 64.5347 129.52 64.5347 129.37V114.964C64.5347 114.814 64.5707 114.665 64.6408 114.527C64.7109 114.388 64.8136 114.262 64.943 114.156C65.0724 114.05 65.226 113.966 65.395 113.909C65.5641 113.852 65.7451 113.823 65.9279 113.823H113.471Z" fill="#263238" stroke="#263238" stroke-width="0.88254" stroke-miterlimit="10"/>
<path d="M120.402 118.166V129.37C120.402 129.672 120.255 129.962 119.995 130.176C119.734 130.39 119.381 130.51 119.012 130.51H105.366L120.402 118.166Z" fill="#263238" stroke="#263238" stroke-width="0.88254" stroke-miterlimit="10"/>
<path d="M118.57 115.629V128.846H90.2276L89.4566 127.806H72.1897L71.4187 128.846H66.3662V115.629H71.27L72.1897 116.875H89.4566L90.3763 115.629H118.57Z" fill="#878787" stroke="#263238" stroke-width="0.88254" stroke-miterlimit="10"/>
<path d="M88.674 119.859H73.313V124.728H88.674V119.859Z" fill="#878787" stroke="#263238" stroke-width="0.88254" stroke-miterlimit="10"/>
<path d="M89.4566 127.806L90.2276 128.846H71.4187L72.1897 127.806H89.4566Z" fill="#263238" stroke="#263238" stroke-width="0.88254" stroke-miterlimit="10"/>
<path d="M72.1897 116.875L71.27 115.629H90.3764L89.4567 116.875H72.1897Z" fill="#263238" stroke="#263238" stroke-width="0.88254" stroke-miterlimit="10"/>
<path d="M80.8232 126.701C83.8255 126.701 86.2593 124.703 86.2593 122.239C86.2593 119.775 83.8255 117.778 80.8232 117.778C77.821 117.778 75.3872 119.775 75.3872 122.239C75.3872 124.703 77.821 126.701 80.8232 126.701Z" fill="#88B5F1" stroke="#263238" stroke-width="0.88254" stroke-miterlimit="10"/>
<path d="M81.8229 125.718C84.167 125.266 85.6208 123.34 85.0701 121.416C84.5195 119.492 82.1729 118.299 79.8288 118.751C77.4848 119.203 76.031 121.129 76.5816 123.053C77.1323 124.976 79.4789 126.17 81.8229 125.718Z" fill="#263238" stroke="#263238" stroke-width="0.88254" stroke-miterlimit="10"/>
<path d="M89.4567 127.806H72.1897L71.407 128.846H90.2159L89.4567 127.806ZM71.2661 115.629L72.1858 116.875H89.4528L90.3725 115.629H71.2661Z" fill="#263238" stroke="#263238" stroke-width="0.88254" stroke-miterlimit="10"/>
<path d="M116.77 119.059H89.5819V125.393H116.77V119.059Z" fill="#878787" stroke="#263238" stroke-width="0.88254" stroke-miterlimit="10"/>
<path d="M91.4174 119.21V120.569" stroke="#263238" stroke-width="0.88254" stroke-miterlimit="10"/>
<path d="M94.4504 119.21V120.569" stroke="#263238" stroke-width="0.88254" stroke-miterlimit="10"/>
<path d="M97.4796 119.21V120.569" stroke="#263238" stroke-width="0.88254" stroke-miterlimit="10"/>
<path d="M100.513 119.21V120.569" stroke="#263238" stroke-width="0.88254" stroke-miterlimit="10"/>
<path d="M103.542 119.21V120.569" stroke="#263238" stroke-width="0.88254" stroke-miterlimit="10"/>
<path d="M106.575 119.21V120.569" stroke="#263238" stroke-width="0.88254" stroke-miterlimit="10"/>
<path d="M109.608 119.21V120.569" stroke="#263238" stroke-width="0.88254" stroke-miterlimit="10"/>
<path d="M112.637 119.21V120.569" stroke="#263238" stroke-width="0.88254" stroke-miterlimit="10"/>
<path d="M115.67 119.21V120.569" stroke="#263238" stroke-width="0.88254" stroke-miterlimit="10"/>
<path d="M91.4174 123.961V125.316" stroke="#263238" stroke-width="0.88254" stroke-miterlimit="10"/>
<path d="M94.4504 123.961V125.316" stroke="#263238" stroke-width="0.88254" stroke-miterlimit="10"/>
<path d="M97.4796 123.961V125.316" stroke="#263238" stroke-width="0.88254" stroke-miterlimit="10"/>
<path d="M100.513 123.961V125.316" stroke="#263238" stroke-width="0.88254" stroke-miterlimit="10"/>
<path d="M103.542 123.961V125.316" stroke="#263238" stroke-width="0.88254" stroke-miterlimit="10"/>
<path d="M106.575 123.961V125.316" stroke="#263238" stroke-width="0.88254" stroke-miterlimit="10"/>
<path d="M109.608 123.961V125.316" stroke="#263238" stroke-width="0.88254" stroke-miterlimit="10"/>
<path d="M112.637 123.961V125.316" stroke="#263238" stroke-width="0.88254" stroke-miterlimit="10"/>
<path d="M115.67 123.961V125.316" stroke="#263238" stroke-width="0.88254" stroke-miterlimit="10"/>
<path d="M67.6187 118.124V120.321L72.4716 120.578V119.005L67.6187 118.124Z" fill="#88B5F1" stroke="#263238" stroke-width="0.88254" stroke-miterlimit="10"/>
<path d="M67.6187 126.029V123.835L72.4716 123.309V125.152L67.6187 126.029Z" fill="#88B5F1" stroke="#263238" stroke-width="0.88254" stroke-miterlimit="10"/>
<path d="M72.5732 122.686L67.4738 123.354V120.925L72.5732 121.272V122.686Z" fill="#88B5F1" stroke="#263238" stroke-width="0.88254" stroke-miterlimit="10"/>
<path d="M115.905 117.582C116.307 117.582 116.633 117.314 116.633 116.984C116.633 116.654 116.307 116.387 115.905 116.387C115.503 116.387 115.177 116.654 115.177 116.984C115.177 117.314 115.503 117.582 115.905 117.582Z" fill="#88B5F1" stroke="#263238" stroke-width="0.88254" stroke-miterlimit="10"/>
<path d="M119.181 113.82H65.8105C65.0432 113.82 64.4211 114.331 64.4211 114.961V129.37C64.4211 130 65.0432 130.51 65.8105 130.51H119.181C119.948 130.51 120.57 130 120.57 129.37V114.961C120.57 114.331 119.948 113.82 119.181 113.82Z" stroke="#263238" stroke-width="0.88254" stroke-miterlimit="10"/>
<path d="M16.8626 133.118C25.2879 133.118 32.118 127.513 32.118 120.598C32.118 113.683 25.2879 108.077 16.8626 108.077C8.43735 108.077 1.6073 113.683 1.6073 120.598C1.6073 127.513 8.43735 133.118 16.8626 133.118Z" fill="#88B5F1" stroke="#263238" stroke-width="0.88254" stroke-miterlimit="10"/>
<path d="M16.1934 133.118C24.6187 133.118 31.4488 127.513 31.4488 120.598C31.4488 113.683 24.6187 108.077 16.1934 108.077C7.76816 108.077 0.93811 113.683 0.93811 120.598C0.93811 127.513 7.76816 133.118 16.1934 133.118Z" fill="#88B5F1" stroke="#263238" stroke-width="0.88254" stroke-miterlimit="10"/>
<path d="M19.5421 130.204C26.0038 128.683 29.74 123.151 27.8871 117.848C26.0343 112.544 19.294 109.478 12.8323 110.999C6.37067 112.519 2.63448 118.051 4.48734 123.355C6.34019 128.658 13.0804 131.724 19.5421 130.204Z" fill="#263238" stroke="#263238" stroke-width="0.88254" stroke-miterlimit="10"/>
<path d="M16.1934 122.849C17.7086 122.849 18.9369 121.841 18.9369 120.598C18.9369 119.354 17.7086 118.346 16.1934 118.346C14.6782 118.346 13.45 119.354 13.45 120.598C13.45 121.841 14.6782 122.849 16.1934 122.849Z" fill="#88B5F1" stroke="#263238" stroke-width="0.88254" stroke-miterlimit="10"/>
<path d="M17.9585 120.598C17.9592 120.31 17.856 120.029 17.662 119.79C17.4679 119.551 17.1916 119.364 16.8683 119.254C16.5449 119.144 16.1889 119.115 15.8453 119.17C15.5018 119.226 15.1863 119.365 14.9386 119.568C14.691 119.771 14.5225 120.03 14.4543 120.312C14.3862 120.594 14.4216 120.886 14.5559 121.152C14.6903 121.417 14.9176 121.644 15.2092 121.803C15.5007 121.962 15.8432 122.047 16.1934 122.046C16.6615 122.046 17.1105 121.894 17.4415 121.622C17.7725 121.35 17.9585 120.982 17.9585 120.598Z" fill="white" stroke="#263238" stroke-width="0.88254" stroke-miterlimit="10"/>
<path d="M16.1935 119.146V122.046" stroke="#263238" stroke-width="0.88254" stroke-miterlimit="10"/>
<path d="M14.4244 120.598H17.9584" stroke="#263238" stroke-width="0.88254" stroke-miterlimit="10"/>
<path d="M38.0863 133.118C46.5116 133.118 53.3416 127.513 53.3416 120.598C53.3416 113.683 46.5116 108.077 38.0863 108.077C29.661 108.077 22.8309 113.683 22.8309 120.598C22.8309 127.513 29.661 133.118 38.0863 133.118Z" fill="#88B5F1" stroke="#263238" stroke-width="0.88254" stroke-miterlimit="10"/>
<path d="M37.4171 133.118C45.8424 133.118 52.6724 127.513 52.6724 120.598C52.6724 113.683 45.8424 108.077 37.4171 108.077C28.9918 108.077 22.1617 113.683 22.1617 120.598C22.1617 127.513 28.9918 133.118 37.4171 133.118Z" fill="#88B5F1" stroke="#263238" stroke-width="0.88254" stroke-miterlimit="10"/>
<path d="M46.0251 127.663C50.7783 123.762 50.7783 117.437 46.0251 113.535C41.2719 109.634 33.5654 109.634 28.8122 113.535C24.0589 117.437 24.0589 123.762 28.8122 127.663C33.5654 131.564 41.2719 131.564 46.0251 127.663Z" fill="#263238" stroke="#263238" stroke-width="0.88254" stroke-miterlimit="10"/>
<path d="M37.417 122.849C38.9322 122.849 40.1605 121.841 40.1605 120.598C40.1605 119.354 38.9322 118.346 37.417 118.346C35.9019 118.346 34.6736 119.354 34.6736 120.598C34.6736 121.841 35.9019 122.849 37.417 122.849Z" fill="#88B5F1" stroke="#263238" stroke-width="0.88254" stroke-miterlimit="10"/>
<path d="M39.1743 120.598C39.175 120.31 39.072 120.029 38.8781 119.79C38.6841 119.551 38.4081 119.365 38.085 119.254C37.7618 119.144 37.406 119.115 37.0626 119.17C36.7192 119.226 36.4036 119.364 36.1559 119.567C35.9081 119.77 35.7392 120.028 35.6706 120.31C35.6021 120.592 35.6369 120.884 35.7706 121.149C35.9044 121.415 36.1311 121.642 36.4221 121.801C36.7131 121.961 37.0553 122.046 37.4053 122.046C37.8738 122.046 38.3231 121.894 38.6548 121.622C38.9864 121.351 39.1732 120.982 39.1743 120.598Z" fill="white" stroke="#263238" stroke-width="0.88254" stroke-miterlimit="10"/>
<path d="M37.4171 119.146V122.046" stroke="#263238" stroke-width="0.88254" stroke-miterlimit="10"/>
<path d="M35.652 120.598H39.186" stroke="#263238" stroke-width="0.88254" stroke-miterlimit="10"/>
<path d="M159.005 94.4136C159.158 90.5395 128.865 86.5935 91.3446 85.6C53.8243 84.6066 23.2843 86.9418 23.1316 90.8159C22.979 94.69 53.2715 98.6359 90.7919 99.6294C128.312 100.623 158.852 98.2877 159.005 94.4136Z" fill="#263238" stroke="#263238" stroke-width="0.88254" stroke-miterlimit="10"/>
<path d="M24.8465 80.5757C24.8465 80.5757 25.6722 82.0436 26.2632 82.5446C26.8542 83.0457 37.511 85.2106 37.511 85.2106L72.0488 91.4163L76.2324 91.0469L90.8577 91.4324C90.8577 91.4324 93.7772 85.5736 90.5916 79.8016C87.4059 74.0295 71.4696 71.7714 66.965 72.947C62.4604 74.1227 51.9092 77.9064 44.3285 75.8379C36.7478 73.7693 30.7013 69.7061 28.1731 70.2457C25.6449 70.7853 24.4395 74.1259 24.4395 75.5681C24.4395 77.0103 24.8465 80.5757 24.8465 80.5757Z" fill="#263238" stroke="#263238" stroke-width="0.88254" stroke-miterlimit="10"/>
<path d="M99.0881 88.6026C98.7867 82.6442 93.9299 77.8069 88.2434 77.794H82.0755L82.1851 79.9268C79.7743 81.8894 78.3106 85.0243 78.4867 88.5576C78.6628 92.0908 80.4435 95.2354 83.0578 97.2076L83.1674 99.3694H89.3314C95.0218 99.379 99.3894 94.5609 99.0881 88.6026Z" fill="#263238" stroke="#263238" stroke-width="0.88254" stroke-miterlimit="10"/>
<path d="M84.0751 99.3219C89.7144 98.8093 93.6367 93.5825 92.8358 87.6477C92.0349 81.7128 86.8141 77.3172 81.1748 77.8298C75.5355 78.3424 71.6132 83.5691 72.4141 89.504C73.215 95.4389 78.4358 99.8345 84.0751 99.3219Z" fill="#878787" stroke="#263238" stroke-width="0.88254" stroke-miterlimit="10"/>
<path d="M90.5915 92.2514C90.6894 91.9848 90.7794 91.7118 90.8538 91.4323C90.9268 91.1497 90.9894 90.8638 91.0416 90.5747C91.1476 89.9201 91.1842 89.2592 91.1512 88.5993C91.0902 87.2136 90.7173 85.8491 90.0515 84.5746L90.0319 84.5425C89.891 84.2759 89.7345 84.0157 89.5662 83.7652L89.5349 83.717C89.3666 83.4697 89.1905 83.2288 89.0026 82.9975L88.9713 82.959C87.3041 80.945 84.8581 79.6506 82.1851 79.6473C79.8956 79.6473 77.8801 80.5821 76.4164 82.1142C76.3185 82.2138 76.2246 82.3198 76.1346 82.4354C76.0446 82.5414 75.9546 82.6506 75.8685 82.7566C75.7824 82.8658 75.7002 82.9782 75.6219 83.0778C75.5436 83.1902 75.4693 83.3027 75.3988 83.4183V83.4376C75.3284 83.55 75.2618 83.6624 75.1953 83.7813V83.8069C75.1327 83.9194 75.074 84.035 75.0153 84.1506C75.0153 84.1506 75.0153 84.1763 74.9957 84.1924C74.9409 84.3048 74.8901 84.4172 74.8392 84.5329L74.8157 84.5875C74.7687 84.6967 74.7257 84.8091 74.6826 84.9247C74.6826 84.9472 74.6631 84.9697 74.6552 84.9922C74.6161 85.1014 74.5809 85.2138 74.5417 85.3134C74.5344 85.3427 74.5253 85.3716 74.5143 85.4001C74.483 85.5061 74.4517 85.6153 74.4243 85.7213C74.4243 85.7534 74.4048 85.7888 74.3969 85.8209C74.3695 85.9269 74.3461 86.0329 74.3226 86.1421L74.2991 86.261C74.2756 86.3605 74.26 86.4665 74.2443 86.5822L74.2208 86.7138C74.2208 86.8134 74.1934 86.9162 74.1817 87.019C74.1817 87.0672 74.1817 87.1154 74.1817 87.1635C74.1817 87.2631 74.1817 87.3659 74.1582 87.4655V87.6196C74.1582 87.7256 74.1582 87.8349 74.1582 87.9409C74.1582 87.989 74.1582 88.034 74.1582 88.079C74.1582 88.2331 74.1582 88.4002 74.1582 88.5479C74.1582 88.6957 74.1817 88.9237 74.2052 89.11C74.2052 89.155 74.2052 89.2 74.2052 89.2449C74.2247 89.4055 74.2482 89.5662 74.2756 89.7235V89.7974C74.35 90.1893 74.4478 90.5715 74.5652 90.9473C75.0792 92.7032 76.1703 94.3097 77.7196 95.592L77.7744 95.6337C77.9544 95.775 78.1384 95.9067 78.3301 96.0352L78.3693 96.0577C79.6873 96.9661 81.3448 97.4762 83.0656 97.5031C84.7572 97.4954 86.3875 96.9828 87.6524 96.0609C89.0436 95.0393 90.0612 93.7204 90.5915 92.2514Z" fill="white" stroke="#263238" stroke-width="0.88254" stroke-miterlimit="10"/>
<path d="M90.1767 88.8691C90.1276 87.8675 89.8845 86.8787 89.4566 85.9398L86.0674 87.6839C86.2217 88.0648 86.31 88.4616 86.3296 88.8627C86.3296 88.9237 86.3296 88.9816 86.3296 89.0394L90.1806 89.5533C90.1884 89.3285 90.1884 89.1004 90.1767 88.8691Z" fill="#263238" stroke="#263238" stroke-width="0.88254" stroke-miterlimit="10"/>
<path d="M84.181 85.6732C84.5441 85.8395 84.8687 86.0569 85.1399 86.3156L87.5272 83.3027C86.7422 82.579 85.7571 82.0206 84.6546 81.6742L84.181 85.6732Z" fill="#263238" stroke="#263238" stroke-width="0.88254" stroke-miterlimit="10"/>
<path d="M85.8443 90.8253C85.6795 91.1002 85.4658 91.3535 85.2103 91.5769L87.1671 95.1776C88.1519 94.4809 88.9171 93.5994 89.3979 92.608L85.8443 90.8253Z" fill="#263238" stroke="#263238" stroke-width="0.88254" stroke-miterlimit="10"/>
<path d="M80.0795 86.9901L76.6238 85.0179C76.091 86.0531 75.8104 87.164 75.798 88.2878L79.6607 88.3777C79.695 87.8979 79.837 87.4275 80.0795 86.9901Z" fill="#263238" stroke="#263238" stroke-width="0.88254" stroke-miterlimit="10"/>
<path d="M81.2536 85.7888C81.5334 85.6284 81.8463 85.5108 82.1772 85.4419L81.6136 81.459C80.3801 81.6467 79.2479 82.1438 78.3732 82.8819L81.2536 85.7888Z" fill="#263238" stroke="#263238" stroke-width="0.88254" stroke-miterlimit="10"/>
<path d="M83.5314 92.3189C83.4094 92.3318 83.2866 92.3382 83.1635 92.3381C82.8147 92.3372 82.4694 92.2816 82.146 92.1743L80.2675 95.6208C81.2054 96.0895 82.2807 96.3404 83.3788 96.3468C83.6762 96.3481 83.9733 96.3299 84.2672 96.2922L83.5314 92.3189Z" fill="#263238" stroke="#263238" stroke-width="0.88254" stroke-miterlimit="10"/>
<path d="M80.0521 90.3467L76.2285 91.0469C76.5981 92.1448 77.233 93.1705 78.0953 94.063L80.5453 91.0919C80.3472 90.8595 80.1818 90.6095 80.0521 90.3467Z" fill="#263238" stroke="#263238" stroke-width="0.88254" stroke-miterlimit="10"/>
<path d="M41.2485 82.5799C41.1076 77.5884 38.8299 73.5316 36.1608 73.522H30.0085L30.5212 91.5994H36.6735C39.3426 91.609 41.3894 87.5618 41.2485 82.5799Z" fill="#263238" stroke="#263238" stroke-width="0.88254" stroke-miterlimit="10"/>
<path d="M35.0962 82.58C35.2371 87.5715 33.1903 91.609 30.5212 91.5994C27.8521 91.5898 25.5744 87.5362 25.4335 82.5414C25.2926 77.5467 27.3394 73.5124 30.0085 73.522C32.6776 73.5316 34.9554 77.6045 35.0962 82.58Z" fill="#878787" stroke="#263238" stroke-width="0.88254" stroke-miterlimit="10"/>
<path d="M34.0044 85.6346C34.0514 85.4098 34.0944 85.1817 34.1296 84.9472C34.1649 84.7128 34.1923 84.4719 34.2157 84.2277C34.2627 83.6945 34.2823 83.1421 34.2666 82.5735C34.2407 81.4371 34.0649 80.3063 33.7422 79.2009V79.1752C33.6757 78.9504 33.6013 78.7319 33.523 78.5328V78.491C33.4408 78.2855 33.3586 78.0831 33.2686 77.8904V77.8583C32.4859 76.1687 31.3392 75.0863 30.0829 75.0798C29.0106 75.0798 28.0596 75.8636 27.3786 77.1484C27.3317 77.2351 27.2886 77.3218 27.2456 77.4086C27.2025 77.4985 27.1595 77.5884 27.1203 77.6816C27.0812 77.7747 27.042 77.8679 27.0068 77.961C26.9716 78.0542 26.9364 78.1473 26.9012 78.2469C26.8646 78.3411 26.8333 78.4375 26.8072 78.536V78.5585C26.7759 78.6516 26.7485 78.748 26.7211 78.8476C26.7229 78.8582 26.7229 78.869 26.7211 78.8797C26.6937 78.9728 26.6702 79.0692 26.6468 79.1656C26.6451 79.1805 26.6451 79.1956 26.6468 79.2105C26.6233 79.3037 26.6037 79.4 26.5802 79.4932V79.551C26.5802 79.6442 26.545 79.7373 26.5294 79.8304V79.9011C26.5294 79.9911 26.4981 80.081 26.4863 80.1709C26.4844 80.1998 26.4844 80.2288 26.4863 80.2577C26.4863 80.3444 26.4628 80.4343 26.455 80.521C26.455 80.5564 26.455 80.5885 26.455 80.6206L26.4315 80.8808V80.99C26.4315 81.0767 26.4315 81.1602 26.4315 81.247C26.4315 81.3337 26.4315 81.3273 26.4315 81.3658C26.4315 81.4525 26.4315 81.5361 26.4315 81.6228C26.4315 81.7095 26.4315 81.7063 26.4315 81.748C26.4315 81.838 26.4315 81.9279 26.4315 82.0211C26.4315 82.0596 26.4315 82.0982 26.4315 82.1367C26.4315 82.2652 26.4315 82.3969 26.4315 82.5254C26.4315 82.6538 26.4315 82.8466 26.4315 83.0007C26.4315 83.0361 26.4315 83.0746 26.4315 83.1132L26.4667 83.5115C26.4667 83.534 26.4667 83.5532 26.4667 83.5757C26.502 83.8969 26.5489 84.2181 26.6037 84.5393C26.806 85.8998 27.3143 87.2177 28.1026 88.4259L28.1261 88.4644C28.2122 88.5801 28.2983 88.6925 28.3883 88.7856V88.8049C29.0341 89.5662 29.7933 90.0127 30.5956 90.0159C31.3979 90.0191 32.1376 89.5726 32.7442 88.8081C33.409 87.8267 33.8369 86.7491 34.0044 85.6346Z" fill="white" stroke="#263238" stroke-width="0.88254" stroke-miterlimit="10"/>
<path d="M158.481 85.1496C158.18 79.1913 153.323 74.3539 147.637 74.3411H141.469C135.778 74.3411 131.411 79.1591 131.712 85.1079C132.013 91.0566 136.87 95.9132 142.561 95.9132H148.725C154.415 95.9293 158.783 91.0951 158.481 85.1496Z" fill="#263238" stroke="#263238" stroke-width="0.88254" stroke-miterlimit="10"/>
<path d="M43.221 47.9637C43.221 47.9637 40.4814 48.6254 40.1175 49.2839C39.7535 49.9423 39.5461 50.4145 39.5461 50.4145L31.2766 60.3108C31.2766 60.3108 28.2905 60.1245 27.3629 62.1963C26.4354 64.2681 26.7916 67.0979 26.7916 67.0979C26.7916 67.0979 24.6077 71.5273 24.4943 74.8261C24.4164 76.7471 24.5316 78.6701 24.8387 80.5756C24.8387 80.5756 24.2633 74.5434 25.9853 72.6579C27.7073 70.7725 31.2687 72.189 32.6385 75.5809C34.0083 78.9728 35.652 85.2877 35.652 85.2877L72.0488 91.4163C72.0488 91.4163 70.2094 83.4986 72.6241 78.9728C75.0388 74.4471 86.2866 74.7329 88.3569 82.9333C90.4272 91.1336 89.7345 92.6401 89.7345 92.6401C89.7345 92.6401 97.4287 93.9603 120.856 93.6776C144.283 93.3949 157.143 91.1336 160.591 90.3788C160.591 90.3788 161.374 86.8905 161.624 84.8188C161.776 83.6264 161.538 82.4223 160.935 81.3305C160.935 81.3305 160.704 77.5595 160.129 76.2394C159.554 74.9192 157.832 72.9406 157.832 72.9406C157.832 72.9406 156.11 69.6418 153.241 67.57C150.372 65.4983 145.66 63.4233 144.51 62.9511C143.359 62.479 141.872 62.1963 139.688 60.9725C137.504 59.7487 123.955 52.0173 119.705 49.9455C115.455 47.8738 106.27 46.8331 104.442 46.5504C102.614 46.2677 81.4728 45.0439 74.123 45.0439C66.7732 45.0439 51.604 45.3266 43.221 47.9637Z" fill="#88B5F1" stroke="#263238" stroke-width="0.88254" stroke-miterlimit="10"/>
<path opacity="0.15" d="M161.62 84.8188C161.772 83.6264 161.534 82.4224 160.931 81.3305C160.931 81.3305 160.857 80.1228 160.689 78.8379C146.318 82.3166 120.609 82.5511 113.439 82.0307C105.201 81.4365 90.5876 79.8016 89.9575 77.8551C89.3274 75.9086 83.6605 71.492 79.7821 70.2971C76.4594 69.2757 37.9062 64.8944 26.948 63.661C26.7468 64.7979 26.7034 65.9498 26.8189 67.0947C26.8189 67.0947 24.6351 71.5241 24.5216 74.8229C24.4438 76.7439 24.559 78.6669 24.866 80.5725C24.866 80.5725 24.2907 74.5402 26.0127 72.6548C27.7347 70.7693 31.2961 72.1858 32.6659 75.5777C34.0356 78.9696 35.652 85.2878 35.652 85.2878L72.0487 91.4163C72.0487 91.4163 70.2093 83.4986 72.624 78.9729C75.0387 74.4471 86.2865 74.7329 88.3568 82.9333C90.4271 91.1337 89.7344 92.6401 89.7344 92.6401C89.7344 92.6401 97.4286 93.9603 120.856 93.6776C144.283 93.395 157.143 91.1337 160.591 90.3788C160.587 90.3788 161.389 86.8906 161.62 84.8188Z" fill="black"/>
<path d="M68.3699 50.9798C63.7479 48.2624 59.7599 47.848 57.8892 47.7228C56.1085 50.347 53.1929 55.3129 52.6097 60.4618C62.3938 61.7145 73.3089 63.1406 73.3089 63.1406C73.3089 63.1406 75.8332 63.8922 76.7529 63.1406C77.0545 62.9391 77.291 62.6799 77.4417 62.3858C77.6726 61.9136 73.6533 54.0923 68.3699 50.9798Z" fill="white" stroke="#263238" stroke-width="0.88254" stroke-miterlimit="10"/>
<path d="M54.7466 47.7324C52.1094 47.8486 49.4857 48.1202 46.8959 48.5451C44.2542 49.0172 43.3345 49.1104 42.8766 49.4894C42.4187 49.8684 37.9376 54.4777 36.3291 57.7669C36.3951 58.0034 36.5552 58.2151 36.7841 58.3687C37.013 58.5222 37.2977 58.6088 37.5932 58.6148C37.9846 58.6148 42.7905 59.2123 48.7784 59.9735C49.7802 57.0474 51.7919 51.9081 54.7466 47.7324Z" fill="white" stroke="#263238" stroke-width="0.88254" stroke-miterlimit="10"/>
<path d="M40.1566 58.7626C40.1566 58.7626 42.1134 52.573 46.0662 48.892" stroke="#263238" stroke-width="0.88254" stroke-miterlimit="10"/>
<path d="M52.7154 64.9104L49.4475 64.4351C49.3412 64.4611 49.2423 64.5042 49.1565 64.5619C49.0707 64.6196 48.9997 64.6907 48.9476 64.7711C48.8955 64.8514 48.8635 64.9395 48.8532 65.0302C48.8429 65.1208 48.8547 65.2122 48.8879 65.2991C49.1305 65.9576 49.5649 65.8837 49.5649 65.8837L52.2849 66.2434C52.4635 66.2584 52.6424 66.2183 52.7871 66.1311C52.9317 66.0438 53.0317 65.9156 53.0676 65.7713C53.2085 65.2316 53.3925 65.1642 52.7154 64.9104Z" stroke="#263238" stroke-width="0.88254" stroke-miterlimit="10"/>
<path d="M36.196 62.5721L33.6952 62.1866C33.5256 62.2342 33.3857 62.3348 33.3058 62.4665C33.226 62.5981 33.2126 62.7504 33.2686 62.8901C33.4525 63.4233 33.7852 63.3655 33.7852 63.3655L35.8633 63.6578C36.0043 63.6689 36.1451 63.6351 36.2566 63.5633C36.3681 63.4916 36.4417 63.3874 36.4621 63.2723C36.5756 62.8291 36.7165 62.7809 36.196 62.5721Z" stroke="#263238" stroke-width="0.88254" stroke-miterlimit="10"/>
<path d="M56.179 47.4113C56.179 47.4113 51.5218 54.5195 50.7 60.4201" stroke="#263238" stroke-width="0.88254" stroke-miterlimit="10"/>
<path d="M49.6432 61.6406C49.6432 61.6406 47.5181 64.5893 47.4359 65.5947C47.3537 66.6 47.6003 78.6709 48.0073 80.884" stroke="#263238" stroke-width="0.88254" stroke-miterlimit="10"/>
<path d="M72.765 55.0687C72.765 55.0687 71.1291 58.9585 70.6399 61.0367" stroke="#263238" stroke-width="0.88254" stroke-miterlimit="10"/>
<path d="M72.1114 65.8644C72.1114 65.8644 70.3111 70.7596 70.2329 74.447C70.1546 78.1345 70.0685 85.0468 70.0685 85.0468" stroke="#263238" stroke-width="0.88254" stroke-miterlimit="10"/>
<path d="M36.0786 59.0902C36.0786 59.0902 32.2393 61.9811 31.9145 62.9125C31.5897 63.844 31.9928 71.9063 31.9928 71.9063" stroke="#263238" stroke-width="0.88254" stroke-miterlimit="10"/>
<path d="M36.826 81.0189C36.826 81.0189 37.3974 82.3616 38.6224 82.6956C39.8474 83.0297 69.591 87.7257 69.591 87.7257" stroke="#263238" stroke-width="0.88254" stroke-miterlimit="10"/>
<path d="M122.969 85.2749C122.969 85.2749 145.742 85.5318 154.204 83.3894C154.204 83.3894 153.37 88.018 151.801 88.9623C150.231 89.9066 138.847 90.8671 133.313 91.018C127.051 91.1915 123.49 90.6775 123.49 90.6775L122.969 85.2749Z" fill="#263238" stroke="#263238" stroke-width="0.88254" stroke-miterlimit="10"/>
<path d="M118.895 73.6119L121.192 77.4663C121.192 77.4663 134.041 77.7233 135.504 77.8068C136.968 77.8903 138.534 78.4942 140.201 77.8068C141.868 77.1194 149.081 76.3518 149.918 76.3518C150.756 76.3518 151.797 76.9524 151.797 76.9524C151.797 76.9524 149.918 73.098 149.186 72.7511C148.638 72.5231 148.02 72.4326 147.41 72.4909C147.1 72.4973 131.849 71.5562 118.895 73.6119Z" fill="#263238" stroke="#263238" stroke-width="0.88254" stroke-miterlimit="10"/>
<path d="M94.6774 65.9126C94.6774 65.9126 89.1983 65.2221 87.1123 65.8259C85.0264 66.4298 86.0595 68.7585 89.6327 70.9138C93.2058 73.0691 96.1489 75.1376 99.8081 75.4845C103.467 75.8314 109.807 76.9621 110.121 75.9985C110.434 75.0349 109.279 71.6012 105.076 69.099C100.873 66.5968 94.6774 65.9126 94.6774 65.9126Z" fill="white" stroke="#263238" stroke-width="0.88254" stroke-miterlimit="10"/>
<path d="M138.58 60.995L137.532 61.2551L132.444 61.374C129.771 61.4382 126.241 61.5185 122.339 61.602C116.954 61.7209 110.864 61.8429 105.365 61.9232C96.959 62.0678 89.9223 62.1417 88.8656 62.0132C86.742 61.789 84.7469 61.0536 83.1321 59.8997C81.9157 59.0064 80.9043 57.9413 80.146 56.7551C77.653 52.9745 71.266 48.3202 71.266 48.3202C81.3514 47.3566 105.412 47.7164 108.144 47.8031C108.992 47.8385 109.835 47.9223 110.668 48.0536C113.584 48.4776 117.388 49.4187 119.595 50.649C119.987 50.8674 120.617 51.2111 121.407 51.6447C123.255 52.6565 125.994 54.1469 128.745 55.6437L133.544 58.2487L138.58 60.995Z" fill="white" stroke="#263238" stroke-width="0.88254" stroke-miterlimit="10"/>
<path d="M119.576 50.649C119.967 50.8674 120.597 51.2111 121.388 51.6447L105.397 61.9233C96.9903 62.0678 89.9536 62.1417 88.8969 62.0132C86.7733 61.789 84.7783 61.0536 83.1635 59.8997L110.649 48.0536C113.565 48.4776 117.369 49.4188 119.576 50.649Z" fill="#263238" stroke="#263238" stroke-width="0.88254" stroke-miterlimit="10"/>
<path d="M133.524 58.2487L132.475 61.374C129.802 61.4383 126.272 61.5186 122.37 61.6021L128.726 55.6437L133.524 58.2487Z" fill="#263238" stroke="#263238" stroke-width="0.88254" stroke-miterlimit="10"/>
<path d="M115.948 71.0327C116.586 71.5659 117.204 72.128 117.791 72.7254" stroke="#263238" stroke-width="0.88254" stroke-miterlimit="10"/>
<path d="M100.454 63.4105C100.454 63.4105 108.406 65.3377 114.844 70.1558" stroke="#263238" stroke-width="0.88254" stroke-miterlimit="10"/>
<path d="M151.39 72.5712C152.23 73.8667 152.839 75.2546 153.198 76.6923" stroke="#263238" stroke-width="0.88254" stroke-miterlimit="10"/>
<path d="M139.226 63.7573C139.226 63.7573 146.271 66.0058 150.494 71.3249" stroke="#263238" stroke-width="0.88254" stroke-miterlimit="10"/>
<path d="M106.759 86.9516C106.759 87.9537 105.585 88.7631 104.133 88.7631C102.681 88.7631 101.507 87.9537 101.507 86.9516C101.507 85.9494 102.681 85.14 104.133 85.14C105.585 85.14 106.759 85.9558 106.759 86.9516Z" fill="white" stroke="#263238" stroke-width="0.88254" stroke-miterlimit="10"/>
<path d="M161.158 84.0093C160.935 84.8734 160.227 85.4805 159.573 85.3648C158.92 85.2492 158.571 84.4622 158.79 83.5982C159.01 82.7342 159.722 82.1303 160.356 82.2427C160.99 82.3551 161.381 83.1485 161.158 84.0093Z" fill="white" stroke="#263238" stroke-width="0.88254" stroke-miterlimit="10"/>
<path d="M70.8943 62.1867C70.8943 62.1867 68.7144 59.1705 67.3368 58.9746C65.9592 58.7787 60.1005 58.5988 58.8364 59.2605C57.5723 59.9222 57.9206 62.0871 58.3785 62.6524C58.8364 63.2177 60.6758 63.5004 62.2922 63.4072C63.9085 63.3141 69.2975 63.6899 69.2975 63.6899C69.2975 63.6899 72.5106 65.5754 73.6612 65.3859C74.8119 65.1963 76.3029 63.1374 75.2658 61.9907C74.2287 60.844 72.6202 61.1588 70.8943 62.1867Z" fill="#263238" stroke="#263238" stroke-width="0.88254" stroke-miterlimit="10"/>
<path d="M70.8943 62.1963L74.6866 62.858" stroke="#263238" stroke-width="0.88254" stroke-miterlimit="10"/>
<path d="M43.221 47.9637C43.221 47.9637 40.4814 48.6254 40.1175 49.2839C39.7535 49.9423 39.5461 50.4145 39.5461 50.4145L31.2766 60.3108C31.2766 60.3108 28.2905 60.1245 27.3629 62.1963C26.4354 64.2681 26.7916 67.0979 26.7916 67.0979C26.7916 67.0979 24.6077 71.5273 24.4943 74.8261C24.4164 76.7471 24.5316 78.6701 24.8387 80.5756C24.8387 80.5756 24.2633 74.5434 25.9853 72.6579C27.7073 70.7725 31.2687 72.189 32.6385 75.5809C34.0083 78.9728 35.652 85.2877 35.652 85.2877L72.0488 91.4163C72.0488 91.4163 70.2094 83.4986 72.6241 78.9728C75.0388 74.4471 86.2866 74.7329 88.3569 82.9333C90.4272 91.1336 89.7345 92.6401 89.7345 92.6401C89.7345 92.6401 97.4287 93.9603 120.856 93.6776C144.283 93.3949 157.143 91.1336 160.591 90.3788C160.591 90.3788 161.373 86.8905 161.624 84.8188C161.776 83.6264 161.538 82.4223 160.935 81.3305C160.935 81.3305 160.704 77.5595 160.129 76.2394C159.554 74.9192 157.832 72.9406 157.832 72.9406C157.832 72.9406 156.11 69.6418 153.241 67.57C150.372 65.4983 145.66 63.4233 144.51 62.9511C143.359 62.479 141.872 62.1963 139.688 60.9725C137.504 59.7487 123.955 52.0173 119.705 49.9455C115.455 47.8738 106.27 46.8331 104.442 46.5504C102.614 46.2677 81.4728 45.0439 74.123 45.0439C66.7732 45.0439 51.604 45.3266 43.221 47.9637Z" stroke="#263238" stroke-width="0.88254" stroke-miterlimit="10"/>
<path d="M149.1 65.1353C149.1 65.1353 146.791 65.8259 147.421 66.5165C148.052 67.2071 151.519 69.0155 153.092 71.2575C154.666 73.4995 154.986 74.6205 155.718 74.6205C156.45 74.6205 158.047 73.5027 157.828 72.9406C157.609 72.3785 156.454 67.2906 149.1 65.1353Z" fill="white" stroke="#263238" stroke-width="0.88254" stroke-miterlimit="10"/>
<path d="M33.4956 82.4226C33.4753 81.5461 33.3653 80.6725 33.1669 79.8112L31.6014 81.3658C31.6789 81.7148 31.7247 82.068 31.7384 82.4226C31.7384 82.4772 31.7384 82.5286 31.7384 82.5799L33.5035 83.0393C33.4996 82.8241 33.4996 82.6185 33.4956 82.4226Z" fill="#263238" stroke="#263238" stroke-width="0.88254" stroke-miterlimit="10"/>
<path d="M30.7404 79.5638C30.9225 79.7335 31.0717 79.9253 31.1826 80.1324L32.2745 77.4439C31.9864 76.8804 31.5333 76.384 30.9556 75.9985L30.7404 79.5638Z" fill="#263238" stroke="#263238" stroke-width="0.88254" stroke-miterlimit="10"/>
<path d="M31.5075 84.1571C31.4386 84.3883 31.3416 84.6132 31.2179 84.8284L32.118 88.0405C32.6119 87.3281 32.9571 86.5529 33.1395 85.7471L31.5075 84.1571Z" fill="#263238" stroke="#263238" stroke-width="0.88254" stroke-miterlimit="10"/>
<path d="M28.8658 80.7362L27.3003 78.976C27.049 79.9347 26.9179 80.912 26.9089 81.8926L28.6779 81.9729C28.6915 81.5566 28.7545 81.1425 28.8658 80.7362Z" fill="#263238" stroke="#263238" stroke-width="0.88254" stroke-miterlimit="10"/>
<path d="M29.3902 79.6666C29.4964 79.5324 29.6417 79.422 29.8129 79.3454L29.5546 75.78C28.9949 75.9374 28.4861 76.3871 28.0674 77.0488L29.3902 79.6666Z" fill="#263238" stroke="#263238" stroke-width="0.88254" stroke-miterlimit="10"/>
<path d="M30.4469 85.4869C30.3922 85.4998 30.3356 85.5063 30.2786 85.5061C30.1074 85.5019 29.9431 85.4498 29.8129 85.3584L28.9441 88.4355C29.112 88.6205 29.3265 88.7737 29.573 88.8845C29.8195 88.9954 30.0922 89.0613 30.3726 89.0779C30.5053 89.0756 30.637 89.0583 30.7639 89.0265L30.4469 85.4869Z" fill="#263238" stroke="#263238" stroke-width="0.88254" stroke-miterlimit="10"/>
<path d="M28.854 83.7299L27.1007 84.3498C27.2525 85.2711 27.5404 86.1739 27.9578 87.0383L29.081 84.3883C28.9864 84.1735 28.9106 83.9535 28.854 83.7299Z" fill="#263238" stroke="#263238" stroke-width="0.88254" stroke-miterlimit="10"/>
<path d="M137.223 19.3315L129.888 22.4825L120.519 23.5939C120.519 23.5939 117.588 25.9097 121.65 30.1689C125.713 34.4281 128.757 35.8189 130.115 35.8189C131.473 35.8189 137.551 34.0587 138.577 33.503C139.602 32.9473 146.928 28.5019 146.928 28.5019C146.928 28.5019 150.321 30.3552 155.409 27.2973C160.497 24.2395 173.803 15.1654 173.803 15.1654C173.803 15.1654 175.721 14.144 174.48 12.1076C173.24 10.0711 169.737 8.03147 167.256 7.28949C164.774 6.5475 161.499 7.47579 160.603 7.84517C159.706 8.21456 140.06 15.7211 140.06 15.7211C140.06 15.7211 136.545 16.7393 137.223 19.3315Z" fill="white" stroke="#263238" stroke-width="0.88254" stroke-miterlimit="10"/>
<path d="M154.176 25.9354C154.162 26.4668 153.97 26.9847 153.621 27.4322" stroke="#263238" stroke-width="0.88254" stroke-miterlimit="10"/>
<path d="M140.972 15.9331C140.972 15.9331 146.611 16.0873 150.458 19.749C152.306 21.5124 153.382 23.0157 153.867 24.2652" stroke="#263238" stroke-width="0.88254" stroke-miterlimit="10"/>
<path d="M138.119 18.9364L141.097 18.0692C141.097 18.0692 145.187 18.2747 147.852 20.4107C150.517 22.5468 150.642 25.0939 150.396 25.9066L147.605 27.8916" stroke="#263238" stroke-width="0.88254" stroke-miterlimit="10"/>
<path d="M131.794 22.8551C131.794 22.8551 136.769 25.4665 138.428 26.671C139.625 27.5383 139.485 30.6893 139.485 30.6893" stroke="#263238" stroke-width="0.88254" stroke-miterlimit="10"/>
<path d="M120.636 24.6538C120.498 24.7543 120.386 24.8772 120.308 25.0148C120.23 25.1524 120.187 25.3018 120.182 25.4536C120.168 26.6509 120.506 27.8335 121.169 28.9002C122.488 31.1004 128.319 34.5951 129.215 34.8746C130.111 35.154 130.706 34.7011 130.961 33.548C131.215 32.3949 129.924 29.231 128.663 28.2706C128.096 27.8402 124.124 25.55 122.304 24.5542C122.052 24.417 121.751 24.3522 121.449 24.3703C121.148 24.3883 120.862 24.488 120.636 24.6538Z" fill="#263238" stroke="#263238" stroke-width="0.88254" stroke-miterlimit="10"/>
<path d="M130.252 28.7235L137.978 27.2845L148.795 22.036C148.795 22.036 149.578 21.4771 147.852 20.4043C147.09 19.8944 146.266 19.4499 145.394 19.0777L134.581 24.3198L137.156 25.7588L128.397 27.3648C129.054 27.7808 129.674 28.2349 130.252 28.7235Z" fill="#263238"/>
<path d="M174.469 12.1076C173.752 10.9352 172.293 9.76597 170.708 8.8409C170.45 8.7953 170.183 8.7953 169.925 8.8409C169.205 9.01113 148.087 17.8892 148.087 17.8892C151.073 19.4953 153.441 23.2983 153.441 23.2983C153.441 23.2983 174.034 11.8988 174.469 12.1076Z" fill="#263238"/>
<path d="M99.773 28.6978C98.2819 28.2256 97.9336 26.5329 97.9336 26.5329C97.9336 26.5329 98.5089 23.6131 100.571 22.3861C102.634 21.1591 104.246 21.0692 105.162 21.0692C105.585 21.0692 106.219 21.5221 106.786 22.0328C107.134 20.355 107.145 18.6416 106.818 16.961C102.09 17.0862 98.235 15.22 90.3803 14.9631C83.8406 14.7543 77.6845 16.8196 75.0193 17.8539C74.942 18.3751 74.9041 18.8996 74.9058 19.4246C74.9059 20.3321 75.0187 21.2372 75.2424 22.1259C75.6806 21.9043 76.1385 21.71 76.6122 21.5446C77.9898 21.0724 81.3085 22.5788 81.7742 22.8647C82.24 23.1506 83.4962 25.3123 83.4962 25.3123C83.4962 25.3123 82.236 27.2877 80.2831 27.6667C79.7185 27.7788 79.1377 27.8264 78.5572 27.8081C79.8098 29.0619 81.3327 30.1159 83.0501 30.9173L83.3827 30.5961C84.412 29.5618 86.1223 27.8659 86.1223 27.8659C86.1223 27.8659 92.7755 28.1485 93.6952 28.1485C94.6149 28.1485 95.4172 29.186 95.7616 30.503C95.922 31.1165 96.0825 31.6015 96.2077 31.9516C98.3637 31.335 100.339 30.3559 102.008 29.0768C101.244 29.0398 100.492 28.9121 99.773 28.6978Z" fill="#263238" stroke="#263238" stroke-width="0.88254" stroke-miterlimit="10"/>
<path d="M90.9908 2.70587C86.9658 2.70587 83.0311 3.68547 79.6844 5.52078C76.3378 7.35609 73.7293 9.96469 72.189 13.0167C70.6487 16.0687 70.2457 19.4271 71.0309 22.6671C71.8162 25.9071 73.7544 28.8832 76.6005 31.2191C79.4467 33.555 83.0728 35.1458 87.0205 35.7902C90.9682 36.4347 95.0601 36.104 98.7787 34.8398C102.497 33.5756 105.676 31.4348 107.912 28.688C110.148 25.9413 111.342 22.712 111.342 19.4085C111.342 14.9787 109.198 10.7303 105.381 7.59797C101.564 4.46561 96.3882 2.70587 90.9908 2.70587ZM102.015 29.0639C99.9288 30.6699 97.3587 31.7909 94.5695 32.3118C91.7802 32.8327 88.8722 32.7348 86.1443 32.0281C83.4164 31.3213 80.9669 30.0313 79.0475 28.2905C77.1281 26.5497 75.808 24.4208 75.2228 22.1227C74.999 21.234 74.8863 20.3289 74.8862 19.4214C74.8845 18.8964 74.9224 18.3718 74.9997 17.8507C75.3057 15.7391 76.2277 13.7193 77.6876 11.9625C79.1475 10.2058 81.1021 8.76396 83.3857 7.75941C85.6693 6.75486 88.2144 6.21721 90.8052 6.19209C93.3959 6.16697 95.9558 6.65511 98.2677 7.6151C100.58 8.57509 102.575 9.97859 104.085 11.7065C105.595 13.4345 106.575 15.4359 106.942 17.5409C107.309 19.646 107.051 21.7926 106.191 23.7986C105.332 25.8046 103.895 27.6108 102.004 29.0639H102.015Z" fill="#88B5F1" stroke="#263238" stroke-width="0.88254" stroke-miterlimit="10"/>
<path d="M104.591 20.0349C104.78 18.9326 104.57 17.8089 103.988 16.8036C100.348 16.3764 96.6303 15.1494 90.3607 14.947C85.4726 14.7896 80.8036 15.9106 77.6414 16.9128C77.169 17.305 76.7729 17.7546 76.4673 18.2458C76.0055 19.0938 76.5808 20.4107 76.5808 20.4107L89.5467 20.6002L104.591 20.0349Z" fill="white" stroke="#263238" stroke-width="0.88254" stroke-miterlimit="10"/>
<path d="M83.5901 16.174C83.5901 16.174 82.2125 16.5498 82.4435 19.1869C82.6744 21.824 84.6233 25.0264 86.0009 25.7781C87.3785 26.5297 92.1962 26.9087 93.6873 26.0607C95.1784 25.2127 97.1313 19.0938 96.9004 17.6805C96.6695 16.2672 95.7537 16.0744 94.607 15.8914C91.3045 15.4426 87.9378 15.4101 84.6233 15.795C84.2445 15.8451 83.8883 15.9757 83.5901 16.174Z" fill="#CFCFCF" stroke="#263238" stroke-width="0.88254" stroke-miterlimit="10"/>
<path d="M102.966 18.1494C102.966 18.8271 102.121 19.3732 101.072 19.3732C100.023 19.3732 99.182 18.8271 99.182 18.1494C99.182 17.4716 100.027 16.9256 101.072 16.9256C102.117 16.9256 102.966 17.4749 102.966 18.1494Z" fill="white" stroke="#263238" stroke-width="0.88254" stroke-miterlimit="10"/>
<path d="M81.1637 18.0402C81.2732 18.7083 80.5218 19.3443 79.4847 19.4567C78.4476 19.5691 77.5279 19.1355 77.4105 18.4513C77.2931 17.7672 78.0562 17.144 79.0894 17.0316C80.1226 16.9192 81.0502 17.3689 81.1637 18.0402Z" fill="white" stroke="#263238" stroke-width="0.88254" stroke-miterlimit="10"/>
<path d="M37.147 2.94358H29.1515V4.2284C25.3143 5.52867 22.0336 7.73449 19.7252 10.5664C17.4168 13.3983 16.1846 16.7289 16.1846 20.1361C16.1846 23.5433 17.4168 26.8738 19.7252 29.7058C22.0336 32.5377 25.3143 34.7435 29.1515 36.0438V37.3286H37.147C42.7074 37.3286 48.04 35.5157 51.9718 32.2888C55.9035 29.0618 58.1124 24.6852 58.1124 20.1216C58.1124 15.5581 55.9035 11.1814 51.9718 7.95447C48.04 4.72754 42.7074 2.91467 37.147 2.91467V2.94358Z" fill="#263238" stroke="#263238" stroke-width="0.88254" stroke-miterlimit="10"/>
<path d="M29.1515 37.3577C40.7303 37.3577 50.1168 29.6539 50.1168 20.1507C50.1168 10.6476 40.7303 2.94379 29.1515 2.94379C17.5727 2.94379 8.18616 10.6476 8.18616 20.1507C8.18616 29.6539 17.5727 37.3577 29.1515 37.3577Z" fill="#878787" stroke="#263238" stroke-width="0.88254" stroke-miterlimit="10"/>
<path d="M29.1514 34.9998C39.1438 34.9998 47.2441 28.3516 47.2441 20.1505C47.2441 11.9495 39.1438 5.30121 29.1514 5.30121C19.1591 5.30121 11.0587 11.9495 11.0587 20.1505C11.0587 28.3516 19.1591 34.9998 29.1514 34.9998Z" fill="#88B5F1" stroke="#263238" stroke-width="0.88254" stroke-miterlimit="10"/>
<path d="M34.6462 7.71028L32.9125 14.3978C32.8808 14.5186 32.8941 14.6444 32.9506 14.759C33.0072 14.8735 33.1043 14.9715 33.2295 15.0402C33.3544 15.1122 33.5035 15.1504 33.6561 15.1494C33.8126 15.1487 33.9653 15.1096 34.0944 15.037L40.9198 11.1151C39.1838 9.59114 37.0345 8.42466 34.6462 7.71028ZM44.4303 15.9203L36.9944 18.9749C36.8576 19.0307 36.7444 19.1191 36.6697 19.2285C36.5951 19.3379 36.5623 19.4633 36.5759 19.5882C36.5894 19.7131 36.6485 19.8318 36.7456 19.9287C36.8426 20.0256 36.973 20.0962 37.1197 20.1313L45.1152 22.0585C45.231 21.4205 45.2886 20.7763 45.2874 20.1313C45.2795 18.7031 44.99 17.2854 44.4303 15.9331V15.9203ZM35.1511 24.4386C35.0346 24.3993 34.9083 24.3836 34.7829 24.3928C34.6574 24.4021 34.5365 24.4361 34.4305 24.4919C34.3245 24.5477 34.2364 24.6237 34.1738 24.7134C34.1112 24.8031 34.0759 24.9039 34.0709 25.0072C34.0711 25.0867 34.0911 25.1654 34.1296 25.2384L37.2605 31.579C39.4554 30.5257 41.3175 29.0633 42.6966 27.3102L35.1511 24.4386ZM28.8071 26.6871C28.7686 26.5678 28.6891 26.4602 28.5781 26.377C28.467 26.2938 28.3291 26.2387 28.1809 26.2181H28.0674C27.9323 26.2185 27.7998 26.2485 27.6836 26.305C27.5673 26.3614 27.4715 26.4423 27.406 26.5393L23.328 32.4848C25.6932 33.2357 28.2407 33.5186 30.7639 33.3103L28.8071 26.6871ZM22.7801 23.3144C22.7153 23.2177 22.6202 23.1369 22.5046 23.0804C22.389 23.024 22.2571 22.9939 22.1226 22.9932C22.0823 22.9901 22.0417 22.9901 22.0013 22.9932L13.7827 24.0982C14.5438 26.0905 15.8688 27.9067 17.6493 29.398L22.7371 23.9954C22.8245 23.8953 22.8751 23.7767 22.8827 23.6537C22.8903 23.5307 22.8547 23.4084 22.7801 23.3016V23.3144ZM21.9974 17.3496L15.7982 12.7468C14.371 14.4746 13.4655 16.4565 13.1565 18.5285L21.4847 18.4289C21.6341 18.4242 21.7787 18.3845 21.9015 18.3145C22.0242 18.2445 22.12 18.1471 22.1774 18.0338C22.2129 17.9602 22.2315 17.8817 22.2322 17.8025C22.233 17.7148 22.2111 17.6279 22.1679 17.5476C22.1247 17.4673 22.0613 17.3955 21.9817 17.3368L21.9974 17.3496ZM20.7294 8.86662L26.0167 14.1472C26.0886 14.2181 26.1782 14.2754 26.2795 14.3153C26.3808 14.3553 26.4914 14.3768 26.6037 14.3785C26.6795 14.3783 26.7547 14.3686 26.8268 14.3496C26.9727 14.3103 27.1014 14.2367 27.1967 14.1379C27.2921 14.0391 27.3499 13.9195 27.363 13.7939L27.8757 6.96509C25.3432 7.12333 22.8932 7.77523 20.7294 8.86662Z" fill="#263238" stroke="#263238" stroke-width="0.88254" stroke-miterlimit="10"/>
<path d="M29.1515 22.3347C30.6213 22.3347 31.8128 21.3568 31.8128 20.1505C31.8128 18.9442 30.6213 17.9663 29.1515 17.9663C27.6817 17.9663 26.4902 18.9442 26.4902 20.1505C26.4902 21.3568 27.6817 22.3347 29.1515 22.3347Z" fill="#88B5F1" stroke="#263238" stroke-width="0.88254" stroke-miterlimit="10"/>
<path d="M25.5549 20.5231C25.5549 20.269 25.463 20.0206 25.291 19.8093C25.119 19.598 24.8745 19.4333 24.5885 19.3361C24.3024 19.2388 23.9877 19.2134 23.684 19.263C23.3803 19.3125 23.1014 19.4349 22.8825 19.6146C22.6635 19.7943 22.5144 20.0232 22.454 20.2724C22.3936 20.5217 22.4246 20.78 22.5431 21.0148C22.6616 21.2495 22.8622 21.4502 23.1197 21.5914C23.3771 21.7326 23.6798 21.8079 23.9894 21.8079C24.4046 21.8079 24.8028 21.6726 25.0963 21.4316C25.3899 21.1907 25.5549 20.8639 25.5549 20.5231Z" fill="#263238" stroke="#263238" stroke-width="0.88254" stroke-miterlimit="10"/>
<path d="M28.6701 16.5305C28.6701 16.2764 28.5783 16.028 28.4063 15.8167C28.2342 15.6055 27.9898 15.4408 27.7037 15.3435C27.4177 15.2463 27.1029 15.2208 26.7992 15.2704C26.4956 15.32 26.2166 15.4424 25.9977 15.622C25.7788 15.8017 25.6297 16.0307 25.5693 16.2799C25.5089 16.5291 25.5399 16.7875 25.6583 17.0222C25.7768 17.257 25.9775 17.4577 26.2349 17.5988C26.4924 17.74 26.795 17.8154 27.1046 17.8154C27.5198 17.8154 27.918 17.68 28.2116 17.4391C28.5052 17.1981 28.6701 16.8713 28.6701 16.5305Z" fill="#263238" stroke="#263238" stroke-width="0.88254" stroke-miterlimit="10"/>
<path d="M34.8693 17.4685C34.8693 17.2144 34.7775 16.966 34.6055 16.7547C34.4335 16.5434 34.189 16.3787 33.9029 16.2815C33.6169 16.1842 33.3021 16.1588 32.9984 16.2083C32.6948 16.2579 32.4158 16.3803 32.1969 16.56C31.978 16.7397 31.8289 16.9686 31.7685 17.2178C31.7081 17.4671 31.7391 17.7254 31.8576 17.9602C31.9761 18.1949 32.1767 18.3956 32.4341 18.5368C32.6916 18.6779 32.9942 18.7533 33.3039 18.7533C33.719 18.7533 34.1172 18.6179 34.4108 18.377C34.7044 18.136 34.8693 17.8092 34.8693 17.4685Z" fill="#263238" stroke="#263238" stroke-width="0.88254" stroke-miterlimit="10"/>
<path d="M35.0845 22.2094C35.0845 21.9553 34.9927 21.7069 34.8207 21.4956C34.6487 21.2843 34.4042 21.1197 34.1181 21.0224C33.8321 20.9252 33.5173 20.8997 33.2137 20.9493C32.91 20.9989 32.6311 21.1213 32.4121 21.3009C32.1932 21.4806 32.0441 21.7096 31.9837 21.9588C31.9233 22.208 31.9543 22.4663 32.0728 22.7011C32.1913 22.9359 32.3919 23.1366 32.6493 23.2777C32.9068 23.4189 33.2094 23.4943 33.5191 23.4943C33.9343 23.4943 34.3324 23.3589 34.626 23.1179C34.9196 22.877 35.0845 22.5502 35.0845 22.2094Z" fill="#263238" stroke="#263238" stroke-width="0.88254" stroke-miterlimit="10"/>
<path d="M29.8364 24.0821C29.8364 23.8279 29.7445 23.5795 29.5725 23.3683C29.4005 23.157 29.156 22.9923 28.87 22.895C28.5839 22.7978 28.2692 22.7724 27.9655 22.8219C27.6618 22.8715 27.3829 22.9939 27.164 23.1736C26.945 23.3532 26.7959 23.5822 26.7355 23.8314C26.6751 24.0806 26.7061 24.339 26.8246 24.5737C26.9431 24.8085 27.1437 25.0092 27.4012 25.1503C27.6586 25.2915 27.9613 25.3669 28.2709 25.3669C28.6861 25.3669 29.0843 25.2315 29.3778 24.9906C29.6714 24.7496 29.8364 24.4228 29.8364 24.0821Z" fill="#263238" stroke="#263238" stroke-width="0.88254" stroke-miterlimit="10"/>
</svg>
